<svg xmlns="http://www.w3.org/2000/svg" viewBox="160 50 340 430"><rect x="160" y="50" width="340" height="430" rx="60" fill="#4b22f4"/><path fill="#fff" d="M375 116.2a49.47 49.47 0 0 0-47.7-37.78H327a49.47 49.47 0 0 0-47.71 37.78 5.23 5.23 0 0 0 5.11 6.41 5.09 5.09 0 0 0 5-3.82 38.75 38.75 0 0 1 75.49 0 5.11 5.11 0 0 0 5 3.82h0a5.23 5.23 0 0 0 5.11-6.41Z"/><path fill="#fff" d="M369.94 128.61a11 11 0 0 1-10.84-8.43 32.76 32.76 0 0 0-63.82 0 11 11 0 0 1-10.84 8.43 11.23 11.23 0 0 1-10.94-13.82 55.28 55.28 0 0 1 43.9-41.48 49.64 49.64 0 0 1 6.07-.67l.44 0a55.89 55.89 0 0 1 6.6 0l.41 0a48.94 48.94 0 0 1 6 .67 55.28 55.28 0 0 1 43.92 41.48 11.23 11.23 0 0 1-10.94 13.82Z"/><path fill="#fff" d="M364 405.48V448a10.46 10.46 0 0 0 10.46 10.46h83.35a10.36 10.36 0 0 0 10.44-11.28c-.75-7.46-1.39-14.94-2-22.42a10.37 10.37 0 0 0-1.59-4.7l-43.28-68.35a10.47 10.47 0 0 0-17.05-.89l-38 48.15a10.52 10.52 0 0 0-2.33 6.51Z"/><path fill="#02e5a0" d="M279.2 144s-40.21.15-53 .18c-8.05 0-10.35 2.1-11.08 10.16Q209.07 221.94 203 289.5 196 368.24 188.88 447a10.42 10.42 0 0 0 10.45 11.51h79.94A10.46 10.46 0 0 0 289.69 448V154.51A10.49 10.49 0 0 0 279.2 144Z"/><path fill="#fff" d="M443.25 199.87a10.53 10.53 0 0 0 2.13-7.32q-1.74-19.25-3.48-38.5c-.74-8.13-2.84-9.85-11.22-9.86-14.42 0-56.24-.17-56.24-.17A10.46 10.46 0 0 0 364 154.48v117.7a10.46 10.46 0 0 0 18.75 6.38Z"/></svg>
